<svg id="visual" viewBox="0 0 900 150" width="900" height="150" xmlns="http://www.w3.org/2000/svg" xmlns:xlink="http://www.w3.org/1999/xlink" version="1.1"><path d="M0 62L21.5 58.8C43 55.7 86 49.3 128.8 43.3C171.7 37.3 214.3 31.7 257.2 31C300 30.3 343 34.7 385.8 39.7C428.7 44.7 471.3 50.3 514.2 55.3C557 60.3 600 64.7 642.8 62.7C685.7 60.7 728.3 52.3 771.2 52C814 51.7 857 59.3 878.5 63.2L900 67L900 151L878.5 151C857 151 814 151 771.2 151C728.3 151 685.7 151 642.8 151C600 151 557 151 514.2 151C471.3 151 428.7 151 385.8 151C343 151 300 151 257.2 151C214.3 151 171.7 151 128.8 151C86 151 43 151 21.5 151L0 151Z" fill="#daebfc"></path><path d="M0 64L21.5 61.7C43 59.3 86 54.7 128.8 56C171.7 57.3 214.3 64.7 257.2 64.5C300 64.3 343 56.7 385.8 55.7C428.7 54.7 471.3 60.3 514.2 63.7C557 67 600 68 642.8 68.5C685.7 69 728.3 69 771.2 68.8C814 68.7 857 68.3 878.5 68.2L900 68L900 151L878.5 151C857 151 814 151 771.2 151C728.3 151 685.7 151 642.8 151C600 151 557 151 514.2 151C471.3 151 428.7 151 385.8 151C343 151 300 151 257.2 151C214.3 151 171.7 151 128.8 151C86 151 43 151 21.5 151L0 151Z" fill="#9eaebf"></path><path d="M0 78L21.5 78.7C43 79.3 86 80.7 128.8 84.2C171.7 87.7 214.3 93.3 257.2 91.3C300 89.3 343 79.7 385.8 75C428.7 70.3 471.3 70.7 514.2 75C557 79.3 600 87.7 642.8 87.7C685.7 87.7 728.3 79.3 771.2 75C814 70.7 857 70.3 878.5 70.2L900 70L900 151L878.5 151C857 151 814 151 771.2 151C728.3 151 685.7 151 642.8 151C600 151 557 151 514.2 151C471.3 151 428.7 151 385.8 151C343 151 300 151 257.2 151C214.3 151 171.7 151 128.8 151C86 151 43 151 21.5 151L0 151Z" fill="#657486"></path><path d="M0 94L21.5 94.8C43 95.7 86 97.3 128.8 96.7C171.7 96 214.3 93 257.2 96C300 99 343 108 385.8 109.8C428.7 111.7 471.3 106.3 514.2 105.8C557 105.3 600 109.7 642.8 112.5C685.7 115.3 728.3 116.7 771.2 115C814 113.3 857 108.7 878.5 106.3L900 104L900 151L878.5 151C857 151 814 151 771.2 151C728.3 151 685.7 151 642.8 151C600 151 557 151 514.2 151C471.3 151 428.7 151 385.8 151C343 151 300 151 257.2 151C214.3 151 171.7 151 128.8 151C86 151 43 151 21.5 151L0 151Z" fill="#313f51"></path><path d="M0 129L21.5 127.5C43 126 86 123 128.8 122.5C171.7 122 214.3 124 257.2 123.3C300 122.7 343 119.3 385.8 118.8C428.7 118.3 471.3 120.7 514.2 123C557 125.3 600 127.7 642.8 126.3C685.7 125 728.3 120 771.2 117.3C814 114.7 857 114.3 878.5 114.2L900 114L900 151L878.5 151C857 151 814 151 771.2 151C728.3 151 685.7 151 642.8 151C600 151 557 151 514.2 151C471.3 151 428.7 151 385.8 151C343 151 300 151 257.2 151C214.3 151 171.7 151 128.8 151C86 151 43 151 21.5 151L0 151Z" fill="#001021"></path></svg>