<svg id="visual" viewBox="0 0 900 300" width="900" height="300" xmlns="http://www.w3.org/2000/svg" xmlns:xlink="http://www.w3.org/1999/xlink" version="1.1"><path d="M0 173L18.8 173.2C37.7 173.3 75.3 173.7 112.8 180.8C150.3 188 187.7 202 225.2 205.8C262.7 209.7 300.3 203.3 337.8 196C375.3 188.7 412.7 180.3 450.2 180.7C487.7 181 525.3 190 562.8 195.7C600.3 201.3 637.7 203.7 675.2 207.5C712.7 211.3 750.3 216.7 787.8 212.5C825.3 208.3 862.7 194.7 881.3 187.8L900 181L900 301L881.3 301C862.7 301 825.3 301 787.8 301C750.3 301 712.7 301 675.2 301C637.7 301 600.3 301 562.8 301C525.3 301 487.7 301 450.2 301C412.7 301 375.3 301 337.8 301C300.3 301 262.7 301 225.2 301C187.7 301 150.3 301 112.8 301C75.3 301 37.7 301 18.8 301L0 301Z" fill="#001f3e"></path><path d="M0 217L18.8 219C37.7 221 75.3 225 112.8 222.7C150.3 220.3 187.7 211.7 225.2 209.2C262.7 206.7 300.3 210.3 337.8 210.8C375.3 211.3 412.7 208.7 450.2 210.5C487.7 212.3 525.3 218.7 562.8 224C600.3 229.3 637.7 233.7 675.2 228.3C712.7 223 750.3 208 787.8 205.5C825.3 203 862.7 213 881.3 218L900 223L900 301L881.3 301C862.7 301 825.3 301 787.8 301C750.3 301 712.7 301 675.2 301C637.7 301 600.3 301 562.8 301C525.3 301 487.7 301 450.2 301C412.7 301 375.3 301 337.8 301C300.3 301 262.7 301 225.2 301C187.7 301 150.3 301 112.8 301C75.3 301 37.7 301 18.8 301L0 301Z" fill="#424f6a"></path><path d="M0 216L18.8 221.8C37.7 227.7 75.3 239.3 112.8 240.3C150.3 241.3 187.7 231.7 225.2 228C262.7 224.3 300.3 226.7 337.8 229C375.3 231.3 412.7 233.7 450.2 232.3C487.7 231 525.3 226 562.8 225.3C600.3 224.7 637.7 228.3 675.2 228.7C712.7 229 750.3 226 787.8 223.3C825.3 220.7 862.7 218.3 881.3 217.2L900 216L900 301L881.3 301C862.7 301 825.3 301 787.8 301C750.3 301 712.7 301 675.2 301C637.7 301 600.3 301 562.8 301C525.3 301 487.7 301 450.2 301C412.7 301 375.3 301 337.8 301C300.3 301 262.7 301 225.2 301C187.7 301 150.3 301 112.8 301C75.3 301 37.7 301 18.8 301L0 301Z" fill="#7e8699"></path><path d="M0 260L18.8 258.7C37.7 257.3 75.3 254.7 112.8 253.8C150.3 253 187.7 254 225.2 251.5C262.7 249 300.3 243 337.8 240.8C375.3 238.7 412.7 240.3 450.2 245.7C487.7 251 525.3 260 562.8 265.2C600.3 270.3 637.7 271.7 675.2 268.7C712.7 265.7 750.3 258.3 787.8 256.7C825.3 255 862.7 259 881.3 261L900 263L900 301L881.3 301C862.7 301 825.3 301 787.8 301C750.3 301 712.7 301 675.2 301C637.7 301 600.3 301 562.8 301C525.3 301 487.7 301 450.2 301C412.7 301 375.3 301 337.8 301C300.3 301 262.7 301 225.2 301C187.7 301 150.3 301 112.8 301C75.3 301 37.7 301 18.8 301L0 301Z" fill="#bdc1cb"></path><path d="M0 276L18.8 273.3C37.7 270.7 75.3 265.3 112.8 266.2C150.3 267 187.7 274 225.2 277C262.7 280 300.3 279 337.8 278C375.3 277 412.7 276 450.2 274.2C487.7 272.3 525.3 269.7 562.8 267.7C600.3 265.7 637.7 264.3 675.2 263.8C712.7 263.3 750.3 263.7 787.8 265.8C825.3 268 862.7 272 881.3 274L900 276L900 301L881.3 301C862.7 301 825.3 301 787.8 301C750.3 301 712.7 301 675.2 301C637.7 301 600.3 301 562.8 301C525.3 301 487.7 301 450.2 301C412.7 301 375.3 301 337.8 301C300.3 301 262.7 301 225.2 301C187.7 301 150.3 301 112.8 301C75.3 301 37.7 301 18.8 301L0 301Z" fill="#ffffff"></path></svg>