<svg id="visual" viewBox="0 0 900 300" width="900" height="300" xmlns="http://www.w3.org/2000/svg" xmlns:xlink="http://www.w3.org/1999/xlink" version="1.1"><path d="M0 188L21.5 189.2C43 190.3 86 192.7 128.8 194.2C171.7 195.7 214.3 196.3 257.2 195C300 193.7 343 190.3 385.8 191C428.7 191.7 471.3 196.3 514.2 199.2C557 202 600 203 642.8 205.2C685.7 207.3 728.3 210.7 771.2 207C814 203.3 857 192.7 878.5 187.3L900 182L900 301L878.5 301C857 301 814 301 771.2 301C728.3 301 685.7 301 642.8 301C600 301 557 301 514.2 301C471.3 301 428.7 301 385.8 301C343 301 300 301 257.2 301C214.3 301 171.7 301 128.8 301C86 301 43 301 21.5 301L0 301Z" fill="#002040"></path><path d="M0 201L21.5 207.3C43 213.7 86 226.3 128.8 226.3C171.7 226.3 214.3 213.7 257.2 209.5C300 205.3 343 209.7 385.8 214.2C428.7 218.7 471.3 223.3 514.2 227.3C557 231.3 600 234.7 642.8 234.5C685.7 234.3 728.3 230.7 771.2 228.8C814 227 857 227 878.5 227L900 227L900 301L878.5 301C857 301 814 301 771.2 301C728.3 301 685.7 301 642.8 301C600 301 557 301 514.2 301C471.3 301 428.7 301 385.8 301C343 301 300 301 257.2 301C214.3 301 171.7 301 128.8 301C86 301 43 301 21.5 301L0 301Z" fill="#004465"></path><path d="M0 243L21.5 241.2C43 239.3 86 235.7 128.8 235.2C171.7 234.7 214.3 237.3 257.2 237.2C300 237 343 234 385.8 234.2C428.7 234.3 471.3 237.7 514.2 235.8C557 234 600 227 642.8 228.2C685.7 229.3 728.3 238.7 771.2 244.2C814 249.7 857 251.3 878.5 252.2L900 253L900 301L878.5 301C857 301 814 301 771.2 301C728.3 301 685.7 301 642.8 301C600 301 557 301 514.2 301C471.3 301 428.7 301 385.8 301C343 301 300 301 257.2 301C214.3 301 171.7 301 128.8 301C86 301 43 301 21.5 301L0 301Z" fill="#006c87"></path><path d="M0 250L21.5 248.7C43 247.3 86 244.7 128.8 245.8C171.7 247 214.3 252 257.2 251.8C300 251.7 343 246.3 385.8 245.8C428.7 245.3 471.3 249.7 514.2 254C557 258.3 600 262.7 642.8 264C685.7 265.3 728.3 263.7 771.2 264.2C814 264.7 857 267.3 878.5 268.7L900 270L900 301L878.5 301C857 301 814 301 771.2 301C728.3 301 685.7 301 642.8 301C600 301 557 301 514.2 301C471.3 301 428.7 301 385.8 301C343 301 300 301 257.2 301C214.3 301 171.7 301 128.8 301C86 301 43 301 21.5 301L0 301Z" fill="#00959c"></path><path d="M0 275L21.5 276.2C43 277.3 86 279.7 128.8 277.5C171.7 275.3 214.3 268.7 257.2 269.2C300 269.7 343 277.3 385.8 278.7C428.7 280 471.3 275 514.2 271.7C557 268.3 600 266.7 642.8 268.8C685.7 271 728.3 277 771.2 280.2C814 283.3 857 283.7 878.5 283.8L900 284L900 301L878.5 301C857 301 814 301 771.2 301C728.3 301 685.7 301 642.8 301C600 301 557 301 514.2 301C471.3 301 428.7 301 385.8 301C343 301 300 301 257.2 301C214.3 301 171.7 301 128.8 301C86 301 43 301 21.5 301L0 301Z" fill="#04bc94"></path></svg>